<mxfile host="app.diagrams.net" modified="2021-02-02T07:46:40.261Z" agent="5.0 (Windows NT 10.0; Win64; x64) AppleWebKit/537.36 (KHTML, like Gecko) Chrome/88.0.4324.104 Safari/537.36" etag="1Q3Im4pYW1MxnQgmEj0l" version="14.2.9" type="github">
  <diagram id="G0_A9WOw2u7-hBWH9CZr" name="Page-1">
    <mxGraphModel dx="782" dy="738" grid="1" gridSize="10" guides="1" tooltips="1" connect="1" arrows="1" fold="1" page="1" pageScale="1" pageWidth="827" pageHeight="1169" math="0" shadow="0">
      <root>
        <mxCell id="0" />
        <mxCell id="1" parent="0" />
        <mxCell id="3SH4TAP5Q59rE79UB9FN-1" value="" style="verticalLabelPosition=bottom;verticalAlign=top;html=1;shadow=0;dashed=0;strokeWidth=1;shape=mxgraph.android.phone2;strokeColor=#c0c0c0;" vertex="1" parent="1">
          <mxGeometry x="300" y="100" width="250" height="470" as="geometry" />
        </mxCell>
        <mxCell id="3SH4TAP5Q59rE79UB9FN-2" value="" style="strokeWidth=1;html=1;shadow=0;dashed=0;shape=mxgraph.android.rrect;rSize=0;strokeColor=#eeeeee;fillColor=#ffffff;gradientColor=none;" vertex="1" parent="1">
          <mxGeometry x="310" y="140" width="230" height="390" as="geometry" />
        </mxCell>
        <mxCell id="3SH4TAP5Q59rE79UB9FN-3" value="&lt;span style=&quot;font-size: 12px&quot;&gt;Pisa Tower Parking&lt;br&gt;Via Andrea Pisano,17&lt;br&gt;(2,5 km)&lt;br&gt;&lt;br&gt;&lt;br&gt;&lt;br&gt;&lt;/span&gt;" style="strokeColor=inherit;fillColor=inherit;gradientColor=inherit;strokeWidth=1;html=1;shadow=0;dashed=0;shape=mxgraph.android.rrect;rSize=0;align=left;spacingLeft=10;fontSize=8;fontColor=#333333;" vertex="1" parent="3SH4TAP5Q59rE79UB9FN-2">
          <mxGeometry width="230" height="97.49999999999999" as="geometry" />
        </mxCell>
        <mxCell id="3SH4TAP5Q59rE79UB9FN-4" value="&lt;font style=&quot;font-size: 12px&quot;&gt;Fly Parking Pisa&lt;br&gt;Via Francesco de Pinedo,1&lt;br&gt;(800 m)&lt;br&gt;&lt;br&gt;&lt;br&gt;&lt;/font&gt;" style="strokeColor=inherit;fillColor=inherit;gradientColor=inherit;strokeWidth=1;html=1;shadow=0;dashed=0;shape=mxgraph.android.rrect;rSize=0;align=left;spacingLeft=10;fontSize=8;fontColor=#333333;" vertex="1" parent="3SH4TAP5Q59rE79UB9FN-2">
          <mxGeometry y="97.49999999999999" width="230" height="97.49999999999999" as="geometry" />
        </mxCell>
        <mxCell id="3SH4TAP5Q59rE79UB9FN-7" value="" style="html=1;verticalLabelPosition=bottom;labelBackgroundColor=#ffffff;verticalAlign=top;shadow=0;dashed=0;strokeWidth=2;shape=mxgraph.ios7.misc.more;strokeColor=#a0a0a0;" vertex="1" parent="3SH4TAP5Q59rE79UB9FN-2">
          <mxGeometry x="190" y="50" width="20" height="30" as="geometry" />
        </mxCell>
        <mxCell id="3SH4TAP5Q59rE79UB9FN-9" value="" style="html=1;verticalLabelPosition=bottom;labelBackgroundColor=#ffffff;verticalAlign=top;shadow=0;dashed=0;strokeWidth=2;shape=mxgraph.ios7.misc.more;strokeColor=#a0a0a0;" vertex="1" parent="3SH4TAP5Q59rE79UB9FN-2">
          <mxGeometry x="190" y="150" width="20" height="30" as="geometry" />
        </mxCell>
        <mxCell id="3SH4TAP5Q59rE79UB9FN-11" value="&lt;font style=&quot;font-size: 12px&quot;&gt;Victory Parking Pisa&lt;br&gt;Via Dell&#39;Aereoporto,69&lt;br&gt;(1,2 km)&lt;br&gt;&lt;br&gt;&lt;br&gt;&lt;/font&gt;" style="strokeColor=inherit;fillColor=inherit;gradientColor=inherit;strokeWidth=1;html=1;shadow=0;dashed=0;shape=mxgraph.android.rrect;rSize=0;align=left;spacingLeft=10;fontSize=8;fontColor=#333333;" vertex="1" parent="3SH4TAP5Q59rE79UB9FN-2">
          <mxGeometry y="195" width="230" height="97.49999999999999" as="geometry" />
        </mxCell>
        <mxCell id="3SH4TAP5Q59rE79UB9FN-12" value="" style="html=1;verticalLabelPosition=bottom;labelBackgroundColor=#ffffff;verticalAlign=top;shadow=0;dashed=0;strokeWidth=2;shape=mxgraph.ios7.misc.more;strokeColor=#a0a0a0;" vertex="1" parent="3SH4TAP5Q59rE79UB9FN-2">
          <mxGeometry x="190" y="240" width="20" height="30" as="geometry" />
        </mxCell>
        <mxCell id="3SH4TAP5Q59rE79UB9FN-13" value="Premendo sul tasto si aprirÃ  una scheda che avvia &lt;br&gt;la navigazione e condivide la posizione sui social" style="text;html=1;align=center;verticalAlign=middle;resizable=0;points=[];autosize=1;" vertex="1" parent="1">
          <mxGeometry x="610" y="290" width="280" height="30" as="geometry" />
        </mxCell>
        <mxCell id="3SH4TAP5Q59rE79UB9FN-14" value="" style="endArrow=classic;html=1;" edge="1" parent="1">
          <mxGeometry width="50" height="50" relative="1" as="geometry">
            <mxPoint x="730" y="270" as="sourcePoint" />
            <mxPoint x="560" y="200" as="targetPoint" />
            <Array as="points">
              <mxPoint x="730" y="200" />
            </Array>
          </mxGeometry>
        </mxCell>
      </root>
    </mxGraphModel>
  </diagram>
</mxfile>
